<svg width="500" height="209" viewBox="0 0 500 209" fill="none" xmlns="http://www.w3.org/2000/svg">
<path d="M249.271 67.7788C246.174 64.8557 244.716 60.6538 244.716 54.8077V29.4134C244.716 29.0481 244.898 28.5 245.08 28.3173C245.262 27.9519 245.627 27.9519 246.174 27.9519H251.822C252.187 27.9519 252.733 28.1346 252.916 28.3173C253.28 28.6827 253.28 29.0481 253.28 29.4134V54.625C253.28 57.9134 254.009 60.2884 255.649 61.9327C257.106 63.5769 259.475 64.4904 262.209 64.4904C265.124 64.4904 267.311 63.5769 268.768 61.9327C270.408 60.2884 271.137 57.7307 271.137 54.625V29.4134C271.137 29.0481 271.319 28.5 271.502 28.3173C271.866 27.9519 272.23 27.9519 272.595 27.9519H278.244C278.608 27.9519 278.972 28.1346 279.337 28.3173C279.519 28.6827 279.701 29.0481 279.701 29.4134V54.625C279.701 60.4711 278.244 64.673 275.146 67.5961C272.048 70.5192 267.675 71.798 262.209 71.798C256.742 71.9807 252.369 70.5192 249.271 67.7788Z" fill="#FFFFFF"/>
<path d="M289.723 70.8846C289.359 70.5192 289.359 70.1538 289.359 69.7884V29.4134C289.359 29.0481 289.541 28.5 289.723 28.3173C289.905 27.9519 290.27 27.9519 290.816 27.9519H295.736C296.465 27.9519 297.194 28.3173 297.558 29.0481L315.233 56.6346V29.4134C315.233 29.0481 315.416 28.5 315.598 28.3173C315.78 27.9519 316.144 27.9519 316.691 27.9519H321.975C322.34 27.9519 322.886 28.1346 323.069 28.3173C323.433 28.6827 323.433 29.0481 323.433 29.4134V69.7884C323.433 70.1538 323.251 70.7019 323.069 70.8846C322.704 71.25 322.34 71.25 321.975 71.25H317.056C316.144 71.25 315.598 70.8846 315.233 70.1538L297.558 43.4807V69.9711C297.558 70.3365 297.376 70.7019 297.194 71.0673C297.012 71.4327 296.647 71.4327 296.101 71.4327H290.816C290.27 71.4327 289.905 71.25 289.723 70.8846Z" fill="#FFFFFF"/>
<path d="M338.557 70.3365C335.824 69.2403 334.002 67.7788 332.544 65.9519C331.268 64.125 330.539 62.1153 330.357 59.923C330.357 59.5576 330.539 59.375 330.722 59.0096C330.904 58.8269 331.268 58.6442 331.633 58.6442H337.281C337.646 58.6442 338.192 58.8269 338.375 59.0096C338.739 59.1923 338.921 59.5576 339.104 59.923C339.468 61.3846 340.379 62.4807 341.837 63.3942C343.295 64.3077 345.299 64.8557 347.85 64.8557C350.765 64.8557 352.952 64.3077 354.41 63.3942C355.867 62.4807 356.596 61.0192 356.596 59.375C356.596 58.2788 356.232 57.3653 355.503 56.6346C354.774 55.9038 353.681 55.173 352.041 54.625C350.583 54.0769 348.214 53.3461 345.299 52.6153C340.379 51.5192 336.917 49.875 334.548 48.048C332.362 46.2211 331.086 43.4807 331.086 39.8269C331.086 37.4519 331.815 35.2596 333.09 33.4327C334.366 31.6057 336.37 30.1442 338.739 29.048C341.108 27.9519 344.023 27.4038 347.303 27.4038C350.765 27.4038 353.681 27.9519 356.232 29.2307C358.783 30.5096 360.605 31.9711 361.881 33.798C363.156 35.625 363.885 37.4519 363.885 39.0961C363.885 39.4615 363.703 39.6442 363.521 40.0096C363.338 40.1923 362.974 40.375 362.609 40.375H356.779C355.867 40.375 355.321 40.0096 354.956 39.2788C354.774 38 353.863 36.9038 352.588 35.9903C351.13 35.0769 349.49 34.7115 347.303 34.7115C345.117 34.7115 343.295 35.0769 342.019 35.9903C340.744 36.9038 340.015 38.1827 340.015 39.8269C340.015 40.923 340.379 41.8365 340.926 42.5673C341.655 43.298 342.566 44.0288 344.023 44.5769C345.481 45.125 347.486 45.8557 350.219 46.4038C353.863 47.3173 356.779 48.2307 358.965 49.1442C361.152 50.2403 362.792 51.5192 363.703 52.9807C364.614 54.4423 365.343 56.6346 365.343 59.0096C365.343 61.75 364.614 63.9423 363.156 65.9519C361.698 67.9615 359.694 69.423 356.961 70.5192C354.228 71.6153 351.13 71.9807 347.668 71.9807C344.388 71.9807 341.29 71.4326 338.557 70.3365Z" fill="#FFFFFF"/>
<path d="M377.187 69.6057L369.898 29.7788V29.2308C369.898 28.8654 370.08 28.5 370.262 28.3173C370.445 28.1346 370.809 27.9519 371.173 27.9519H376.822C377.369 27.9519 377.733 28.1346 377.915 28.3173C378.098 28.5 378.28 28.8654 378.462 29.2308L383.564 57.1827L389.031 39.0961C389.395 38 390.124 37.4519 391.035 37.4519H394.497C395.044 37.4519 395.408 37.6346 395.773 38C396.137 38.3654 396.319 38.7307 396.501 39.0961L402.15 57.1827L407.252 29.2308C407.434 28.3173 407.981 27.9519 409.074 27.9519H414.723C415.087 27.9519 415.27 28.1346 415.634 28.3173C415.816 28.5 415.999 28.8654 415.999 29.2308C415.999 29.4134 415.999 29.5961 415.999 29.7788L408.71 69.6057C408.71 70.1538 408.345 70.7019 407.981 70.8846C407.617 71.25 407.07 71.4327 406.523 71.4327H402.332C401.786 71.4327 401.239 71.25 400.875 70.8846C400.51 70.5192 400.328 70.1538 400.146 69.7884L393.222 49.1442L386.297 69.7884C385.933 70.8846 385.204 71.25 384.111 71.25H379.92C378.098 71.4327 377.369 70.7019 377.187 69.6057Z" fill="#FFFFFF"/>
<path d="M245.445 125.692C245.08 125.327 245.08 124.961 245.08 124.596V84.2211C245.08 83.8557 245.263 83.3076 245.445 83.1249C245.627 82.7595 245.991 82.7595 246.538 82.7595H273.506C273.87 82.7595 274.417 82.9422 274.599 83.1249C274.964 83.4903 274.964 83.8557 274.964 84.2211V88.6057C274.964 88.971 274.781 89.3364 274.599 89.7018C274.235 90.0672 273.87 90.0672 273.506 90.0672H253.644V101.942H272.23C272.595 101.942 273.142 102.125 273.324 102.308C273.688 102.673 273.688 103.038 273.688 103.404V107.788C273.688 108.154 273.506 108.519 273.324 108.884C272.959 109.25 272.595 109.25 272.23 109.25H253.644V124.596C253.644 124.961 253.462 125.327 253.28 125.692C252.916 126.058 252.551 126.058 252.187 126.058H246.538C245.991 126.24 245.627 126.058 245.445 125.692Z" fill="#FFFFFF"/>
<path d="M282.799 125.692C282.435 125.327 282.435 124.961 282.435 124.596V84.2211C282.435 83.8557 282.617 83.4903 282.799 83.1249C283.163 82.9422 283.528 82.7595 283.892 82.7595H289.905C290.27 82.7595 290.634 82.9422 290.999 83.1249C291.363 83.3076 291.363 83.673 291.363 84.2211V124.779C291.363 125.144 291.181 125.51 290.999 125.875C290.816 126.24 290.452 126.24 289.905 126.24H283.892C283.346 126.24 282.981 126.058 282.799 125.692Z" fill="#FFFFFF"/>
<path d="M301.385 125.692C301.021 125.327 301.021 124.961 301.021 124.596V84.2211C301.021 83.8557 301.203 83.3076 301.385 83.1249C301.567 82.7595 301.932 82.7595 302.478 82.7595H307.398C308.127 82.7595 308.856 83.1249 309.22 83.8557L326.895 111.442V84.2211C326.895 83.8557 327.077 83.3076 327.26 83.1249C327.442 82.7595 327.806 82.7595 328.353 82.7595H333.637C334.002 82.7595 334.548 82.9422 334.73 83.1249C335.095 83.4903 335.095 83.8557 335.095 84.2211V124.596C335.095 124.961 334.913 125.51 334.73 125.692C334.366 126.058 334.002 126.058 333.637 126.058H328.717C327.806 126.058 327.26 125.692 326.895 124.961L309.22 98.2884V124.779C309.22 125.144 309.038 125.51 308.856 125.875C308.674 126.24 308.309 126.24 307.762 126.24H302.296C301.932 126.24 301.567 126.058 301.385 125.692Z" fill="#FFFFFF"/>
<path d="M354.592 125.692C354.227 125.327 354.227 124.961 354.227 124.596V90.4326H342.748C342.383 90.4326 342.019 90.2499 341.654 90.0673C341.29 89.7019 341.29 89.3365 341.29 88.9711V84.4038C341.29 84.0384 341.472 83.4903 341.654 83.3076C341.837 82.9423 342.201 82.9423 342.748 82.9423H374.453C374.818 82.9423 375.364 83.125 375.547 83.3076C375.911 83.673 375.911 84.0384 375.911 84.4038V88.9711C375.911 89.3365 375.729 89.8846 375.547 90.0673C375.182 90.4326 374.818 90.4326 374.453 90.4326H362.974V124.596C362.974 124.961 362.792 125.327 362.609 125.692C362.427 126.058 362.063 126.058 361.516 126.058H355.685C355.321 126.24 354.956 126.058 354.592 125.692Z" fill="#FFFFFF"/>
<path d="M382.653 125.692C382.289 125.327 382.289 124.961 382.289 124.596V84.2211C382.289 83.8557 382.471 83.3076 382.653 83.1249C382.835 82.7595 383.2 82.7595 383.746 82.7595H411.079C411.443 82.7595 411.99 82.9422 412.172 83.1249C412.536 83.4903 412.536 83.8557 412.536 84.2211V88.423C412.536 88.7884 412.354 89.1537 412.172 89.5191C411.808 89.7018 411.443 89.8845 411.079 89.8845H390.671V100.846H409.621C409.985 100.846 410.532 101.029 410.714 101.211C411.079 101.577 411.079 101.942 411.079 102.308V106.144C411.079 106.509 410.897 106.875 410.714 107.24C410.35 107.423 409.985 107.606 409.621 107.606H390.671V118.933H411.443C411.808 118.933 412.354 119.115 412.536 119.298C412.901 119.481 412.901 119.846 412.901 120.394V124.596C412.901 124.961 412.719 125.327 412.536 125.692C412.172 125.875 411.808 126.058 411.443 126.058H383.564C383.2 126.24 383.017 126.058 382.653 125.692Z" fill="#FFFFFF"/>
<path d="M424.016 122.404C420.918 119.481 419.278 115.279 419.096 109.981C419.096 108.885 419.096 107.058 419.096 104.5C419.096 101.942 419.096 100.115 419.096 98.8365C419.278 93.5384 420.918 89.3365 424.198 86.4134C427.296 83.4903 431.669 82.0288 437.318 82.0288C440.962 82.0288 444.242 82.5769 446.975 83.8557C449.708 85.1346 451.895 86.7788 453.353 88.9711C454.81 91.1634 455.722 93.5384 455.722 96.2788V96.4615C455.722 96.8269 455.539 97.0096 455.357 97.375C455.175 97.5577 454.81 97.7403 454.446 97.7403H448.433C447.886 97.7403 447.522 97.5577 447.34 97.375C447.157 97.1923 446.975 96.8269 446.793 96.0961C446.246 93.5384 445.153 91.7115 443.513 90.6154C441.873 89.5192 440.051 88.9711 437.5 88.9711C431.669 88.9711 428.571 92.2596 428.207 98.8365C428.207 99.9327 428.207 101.76 428.207 103.952C428.207 106.144 428.207 107.971 428.207 109.25C428.389 115.827 431.487 119.115 437.5 119.115C440.051 119.115 442.055 118.567 443.513 117.471C444.971 116.375 446.064 114.548 446.793 111.99C446.975 111.442 447.157 111.077 447.34 110.711C447.522 110.529 447.886 110.346 448.433 110.346H454.446C454.81 110.346 455.175 110.529 455.357 110.711C455.539 110.894 455.722 111.26 455.722 111.625C455.722 114.365 454.81 116.74 453.353 118.933C451.895 121.125 449.708 122.769 446.975 124.048C444.242 125.327 440.962 125.875 437.318 125.875C431.487 126.788 427.114 125.327 424.016 122.404Z" fill="#FFFFFF"/>
<path d="M463.375 125.692C463.01 125.327 463.01 124.961 463.01 124.596V84.2211C463.01 83.8557 463.192 83.3076 463.375 83.1249C463.557 82.7595 463.921 82.7595 464.468 82.7595H470.117C470.481 82.7595 471.028 82.9422 471.21 83.1249C471.574 83.4903 471.574 83.8557 471.574 84.2211V100.115H489.614V84.2211C489.614 83.8557 489.796 83.3076 489.978 83.1249C490.343 82.7595 490.707 82.7595 491.071 82.7595H496.902C497.267 82.7595 497.631 82.9422 497.996 83.1249C498.178 83.4903 498.36 83.8557 498.36 84.2211V124.596C498.36 124.961 498.178 125.327 497.996 125.692C497.813 126.058 497.449 126.058 496.902 126.058H491.071C490.707 126.058 490.343 125.875 489.978 125.692C489.614 125.327 489.614 124.961 489.614 124.596V107.971H471.574V124.596C471.574 124.961 471.392 125.327 471.21 125.692C470.846 126.058 470.481 126.058 470.117 126.058H464.468C463.921 126.24 463.557 126.058 463.375 125.692Z" fill="#FFFFFF"/>
<path d="M250.547 179.952C247.813 178.856 245.991 177.394 244.534 175.567C243.258 173.74 242.529 171.731 242.347 169.538C242.347 169.173 242.529 168.99 242.711 168.625C242.894 168.442 243.258 168.26 243.622 168.26H249.271C249.636 168.26 250.182 168.442 250.364 168.625C250.729 168.808 250.911 169.173 251.093 169.538C251.458 171 252.369 172.096 253.827 173.01C255.284 173.923 257.289 174.471 259.84 174.471C262.755 174.471 264.942 173.923 266.399 173.01C267.857 172.096 268.586 170.635 268.586 168.99C268.586 167.894 268.222 166.981 267.493 166.25C266.764 165.519 265.671 164.788 264.031 164.24C262.573 163.692 260.204 162.961 257.289 162.231C252.369 161.135 248.907 159.49 246.538 157.663C244.351 155.836 243.076 153.096 243.076 149.442C243.076 147.067 243.805 144.875 245.08 143.048C246.356 141.221 248.36 139.76 250.729 138.663C253.098 137.567 256.013 137.019 259.293 137.019C262.755 137.019 265.671 137.567 268.222 138.846C270.773 140.125 272.595 141.586 273.87 143.413C275.146 145.24 275.875 147.067 275.875 148.711C275.875 149.077 275.692 149.26 275.51 149.625C275.328 149.808 274.964 149.99 274.599 149.99H268.768C267.857 149.99 267.311 149.625 266.946 148.894C266.764 147.615 265.853 146.519 264.577 145.606C263.12 144.692 261.48 144.327 259.293 144.327C257.106 144.327 255.284 144.692 254.009 145.606C252.733 146.519 252.004 147.798 252.004 149.442C252.004 150.538 252.369 151.452 252.915 152.183C253.644 152.913 254.555 153.644 256.013 154.192C257.471 154.74 259.475 155.471 262.208 156.019C265.853 156.933 268.768 157.846 270.955 158.76C273.141 159.856 274.781 161.135 275.692 162.596C276.604 164.058 277.332 166.25 277.332 168.625C277.332 171.365 276.604 173.558 275.146 175.567C273.688 177.577 271.684 179.038 268.95 180.135C266.217 181.231 263.12 181.596 259.657 181.596C256.378 181.596 253.28 181.048 250.547 179.952Z" fill="#FFFFFF"/>
<path d="M288.448 177.394C285.35 174.471 283.71 170.269 283.528 164.606C283.528 163.327 283.528 161.683 283.528 159.308C283.528 156.933 283.528 155.106 283.528 154.01C283.71 148.529 285.35 144.327 288.63 141.404C291.91 138.481 296.283 137.019 301.749 137.019C307.216 137.019 311.589 138.481 314.869 141.404C318.149 144.327 319.789 148.529 319.971 154.01C319.971 156.385 320.153 158.211 320.153 159.308C320.153 160.404 320.153 162.231 319.971 164.606C319.789 170.269 318.149 174.471 315.051 177.394C311.954 180.317 307.58 181.596 301.932 181.596C295.919 181.596 291.545 180.135 288.448 177.394ZM308.127 171.913C309.767 170.269 310.678 167.711 310.678 164.24C310.678 161.683 310.86 160.038 310.86 159.125C310.86 158.211 310.86 156.567 310.678 154.01C310.496 150.538 309.585 148.163 307.945 146.336C306.305 144.51 304.118 143.779 301.385 143.779C298.652 143.779 296.465 144.692 294.825 146.336C293.185 147.981 292.274 150.538 292.274 154.01C292.274 155.288 292.274 156.933 292.274 159.125C292.274 161.317 292.274 162.961 292.274 164.24C292.274 167.711 293.185 170.086 294.825 171.913C296.465 173.558 298.652 174.471 301.385 174.471C304.3 174.471 306.487 173.558 308.127 171.913Z" fill="#FFFFFF"/>
<path d="M331.451 177.212C328.353 174.288 326.713 170.087 326.531 164.788C326.531 163.692 326.531 161.865 326.531 159.308C326.531 156.75 326.531 154.923 326.531 153.644C326.713 148.346 328.353 144.144 331.633 141.221C334.73 138.298 339.104 136.837 344.752 136.837C348.397 136.837 351.676 137.385 354.41 138.663C357.143 139.942 359.33 141.587 360.787 143.779C362.245 145.971 363.156 148.346 363.156 151.087V151.269C363.156 151.635 362.974 151.817 362.792 152.183C362.609 152.365 362.245 152.548 361.881 152.548H355.867C355.321 152.548 354.956 152.365 354.774 152.183C354.592 152 354.41 151.635 354.227 150.904C353.681 148.346 352.588 146.519 350.948 145.423C349.49 144.327 347.303 143.779 344.934 143.779C339.104 143.779 336.006 147.067 335.642 153.644C335.642 154.74 335.642 156.567 335.642 158.76C335.642 160.952 335.642 162.779 335.642 164.058C335.824 170.635 338.921 173.923 344.934 173.923C347.486 173.923 349.49 173.375 350.948 172.279C352.588 171.183 353.499 169.356 354.227 166.798C354.41 166.25 354.592 165.885 354.774 165.519C354.956 165.337 355.321 165.154 355.867 165.154H361.881C362.245 165.154 362.609 165.337 362.792 165.519C362.974 165.702 363.156 166.067 363.156 166.433C363.156 169.173 362.245 171.548 360.787 173.74C359.33 175.933 357.143 177.577 354.41 178.856C351.676 180.135 348.397 180.683 344.752 180.683C338.921 181.596 334.548 180.135 331.451 177.212Z" fill="#FFFFFF"/>
<path d="M370.809 180.5C370.445 180.135 370.445 179.769 370.445 179.404V139.029C370.445 138.663 370.627 138.298 370.809 137.933C371.173 137.75 371.538 137.567 371.902 137.567H377.915C378.28 137.567 378.644 137.75 379.009 137.933C379.191 138.115 379.373 138.481 379.373 139.029V179.587C379.373 179.952 379.191 180.317 379.009 180.683C378.826 181.048 378.462 181.048 377.915 181.048H371.902C371.356 181.048 370.991 180.865 370.809 180.5Z" fill="#FFFFFF"/>
<path d="M389.395 180.5C389.031 180.135 389.031 179.769 389.031 179.404V139.029C389.031 138.663 389.213 138.115 389.395 137.933C389.577 137.567 389.942 137.567 390.488 137.567H417.821C418.185 137.567 418.732 137.75 418.914 137.933C419.279 138.298 419.279 138.663 419.279 139.029V143.231C419.279 143.596 419.096 143.961 418.914 144.327C418.55 144.51 418.185 144.692 417.821 144.692H397.413V155.654H416.363C416.728 155.654 417.274 155.836 417.456 156.019C417.821 156.385 417.821 156.75 417.821 157.115V160.952C417.821 161.317 417.639 161.683 417.456 162.048C417.092 162.231 416.728 162.413 416.363 162.413H397.413V173.74H418.185C418.55 173.74 419.096 173.923 419.279 174.106C419.643 174.288 419.643 174.654 419.643 175.202V179.404C419.643 179.769 419.461 180.135 419.279 180.5C418.914 180.683 418.55 180.865 418.185 180.865H390.306C389.942 181.048 389.577 180.865 389.395 180.5Z" fill="#FFFFFF"/>
<path d="M437.5 180.5C437.136 180.135 437.136 179.769 437.136 179.404V145.24H425.656C425.292 145.24 424.927 145.058 424.563 144.875C424.198 144.51 424.198 144.144 424.198 143.779V139.212C424.198 138.846 424.38 138.298 424.563 138.115C424.745 137.75 425.109 137.75 425.656 137.75H457.179C457.544 137.75 458.09 137.933 458.273 138.115C458.637 138.481 458.637 138.846 458.637 139.212V143.779C458.637 144.144 458.455 144.692 458.273 144.875C457.908 145.24 457.544 145.24 457.179 145.24H445.7V179.404C445.7 179.769 445.517 180.135 445.335 180.5C445.153 180.865 444.789 180.865 444.242 180.865H438.411C438.047 181.048 437.682 180.865 437.5 180.5Z" fill="#FFFFFF"/>
<path d="M476.859 180.5C476.494 180.135 476.494 179.769 476.494 179.404V165.519L461.735 139.577C461.553 139.211 461.552 139.029 461.552 138.846C461.552 138.481 461.735 138.115 461.917 137.933C462.099 137.75 462.464 137.567 462.828 137.567H468.477C469.206 137.567 469.934 137.933 470.481 138.663L480.867 156.75L491.254 138.663C491.436 138.298 491.618 138.115 491.983 137.933C492.347 137.75 492.711 137.567 493.076 137.567H498.724C499.089 137.567 499.453 137.75 499.636 137.933C499.818 138.115 500 138.481 500 138.846C500 139.029 500 139.394 499.818 139.577L485.241 165.519V179.404C485.241 179.769 485.058 180.135 484.876 180.5C484.694 180.865 484.147 180.865 483.783 180.865H478.134C477.587 181.048 477.223 180.865 476.859 180.5Z" fill="#FFFFFF"/>
<path d="M101.13 34.7115L201.713 92.9904V58.2788L101.13 0V34.7115Z" fill="#FFFFFF"/>
<path d="M101.13 91.1634L202.259 150.538V115.827L101.13 56.4519V91.1634Z" fill="#FFFFFF"/>
<path d="M0.364429 93.1731L101.13 151.452V116.923L0 58.4615L0.364429 93.1731Z" fill="#FFFFFF"/>
<path d="M0 150.538L101.13 209V174.471L0 114.913V150.538Z" fill="#FFFFFF"/>
<path d="M202.259 150.538L101.13 209V174.471L202.259 115.827V150.538Z" fill="#FFFFFF"/>
<path d="M201.713 93.173L101.13 151.452V116.923L201.713 58.2788V93.173Z" fill="#FFFFFF"/>
<path d="M101.13 91.1635L0.364429 149.442L0 114.913L101.13 56.4519V91.1635Z" fill="#FFFFFF"/>
<path d="M101.13 34.7115L0.364429 92.9904L0 58.4615L101.13 0V34.7115Z" fill="#FFFFFF"/>
</svg>
