<svg width="190" height="195" viewBox="0 0 190 195" fill="none" xmlns="http://www.w3.org/2000/svg">
<path d="M95 32.3864L189.486 86.7613V54.375L95 0V32.3864Z" fill="#F02C2E"/>
<path d="M95 85.0569L190 140.455V108.068L95 52.6705V85.0569Z" fill="#F02C2E"/>
<path d="M0.34234 86.9318L95 141.307V109.091L0 54.5454L0.34234 86.9318Z" fill="#F02C2E"/>
<path d="M0 140.455L95 195V162.784L0 107.216V140.455Z" fill="#F02C2E"/>
<path d="M190 140.454L95 195V162.784L190 108.068V140.454Z" fill="#F02C2E"/>
<path d="M189.486 86.9318L95 141.307V109.091L189.486 54.375V86.9318Z" fill="#F02C2E"/>
<path d="M95 85.0569L0.34234 139.432L0 107.216L95 52.6705V85.0569Z" fill="#F02C2E"/>
<path d="M95 32.3864L0.34234 86.7613L0 54.5454L95 0V32.3864Z" fill="#F02C2E"/>
</svg>
